<svg width="216" height="194" viewBox="0 0 216 194" fill="none" xmlns="http://www.w3.org/2000/svg">
<path d="M36.0839 176.24C29.7186 176.24 24.1799 174.959 19.4679 172.396C14.7559 169.751 11.1186 166.031 8.55591 161.236C5.99325 156.441 4.71191 150.82 4.71191 144.372C4.71191 137.924 5.99325 132.385 8.55591 127.756C11.1186 123.044 14.7559 119.448 19.4679 116.968C24.1799 114.405 29.7186 113.124 36.0839 113.124C39.9692 113.124 43.8132 113.744 47.6159 114.984C51.4186 116.224 54.5599 117.96 57.0399 120.192L52.4519 130.98C50.3026 129.079 47.8639 127.632 45.1359 126.64C42.4906 125.648 39.9279 125.152 37.4479 125.152C32.0746 125.152 27.8999 126.847 24.9239 130.236C22.0306 133.543 20.5839 138.296 20.5839 144.496C20.5839 150.613 22.0306 155.449 24.9239 159.004C27.8999 162.476 32.0746 164.212 37.4479 164.212C39.8452 164.212 42.4079 163.716 45.1359 162.724C47.8639 161.732 50.3026 160.244 52.4519 158.26L57.0399 169.172C54.5599 171.321 51.3772 173.057 47.4919 174.38C43.6892 175.62 39.8866 176.24 36.0839 176.24Z" fill="white"/>
<path d="M66.5482 175V114.364H81.6762V125.028C84.6522 117.836 91.0175 113.868 100.772 113.124L105.484 112.752L106.476 125.896L97.5482 126.764C87.3802 127.756 82.2962 132.964 82.2962 142.388V175H66.5482Z" fill="white"/>
<path d="M115.355 175V114.364H130.483V123.664C132.301 120.357 134.823 117.795 138.047 115.976C141.271 114.075 144.991 113.124 149.207 113.124C158.3 113.124 164.252 117.092 167.063 125.028C168.964 121.308 171.692 118.415 175.247 116.348C178.801 114.199 182.852 113.124 187.399 113.124C201.039 113.124 207.859 121.432 207.859 138.048V175H192.359V138.668C192.359 134.039 191.573 130.649 190.003 128.5C188.515 126.351 185.952 125.276 182.315 125.276C178.264 125.276 175.081 126.723 172.767 129.616C170.452 132.427 169.295 136.353 169.295 141.396V175H153.795V138.668C153.795 134.039 153.009 130.649 151.439 128.5C149.951 126.351 147.429 125.276 143.875 125.276C139.824 125.276 136.641 126.723 134.327 129.616C132.012 132.427 130.855 136.353 130.855 141.396V175H115.355Z" fill="white"/>
<path d="M87 45.5H73C70.9 45.5 69.5 46.9 69.5 49V77C69.5 79.1 70.9 80.5 73 80.5H87C89.1 80.5 90.5 79.1 90.5 77V49C90.5 46.9 89.1 45.5 87 45.5ZM143 31.5H129C126.9 31.5 125.5 32.9 125.5 35V77C125.5 79.1 126.9 80.5 129 80.5H143C145.1 80.5 146.5 79.1 146.5 77V35C146.5 32.9 145.1 31.5 143 31.5ZM115 3.5H101C98.9 3.5 97.5 4.9 97.5 7V77C97.5 79.1 98.9 80.5 101 80.5H115C117.1 80.5 118.5 79.1 118.5 77V7C118.5 4.9 117.1 3.5 115 3.5Z" fill="white"/>
</svg>
